# xmcd
# 
# Track frame offsets:
#     150
#     10133
#     20607
#     30716
#     40096
#     51553
#     65126
#     75321
#     82002
#     91709
#     100225
#     110519
#     119715
#     132140
#     142876
#     154130
#     163626
#     173360
#     184823
#     194896
#     206124
#     214904
#     225058
#     243432
#     254576
# 
# Disc length: 3541
# 
# Revision: 1
# Processed by: cddbd v1.5.2PL0 Copyright (c) Steve Scherf et al.
# Submitted via: fre:ac v1.0.17
# 
DISCID=5a0dd319
DTITLE=Johnny Cash - Just One More - CD 2
DYEAR=0
DGENRE=
TTITLE0=All Over Again
TTITLE1=Bonanza
TTITLE2=Get Rhythm
TTITLE3=I'll Remember You
TTITLE4=Seasons Of My Heart
TTITLE5=Tennessee Flat Top Box
TTITLE6=Wabash Blues
TTITLE7=You're My Baby
TTITLE8=Story Of A Broken Heart
TTITLE9=The Rebel - Johnny Yuma
TTITLE10=Busted (with The Carter Family)
TTITLE11=Down The Street To 301
TTITLE12=I Walk The Line
TTITLE13=In The Jailhouse Now
TTITLE14=Mean Eyed Cat
TTITLE15=Smiling Bill McCall
TTITLE16=Bandana
TTITLE17=Big River
TTITLE18=Girl In Saskatoon
TTITLE19=Oh Lonesome Me
TTITLE20=Second Honeymoon
TTITLE21=Straight A's In Love
TTITLE22=The Big Battle
TTITLE23=Cry, Cry, Cry
TTITLE24=I Love You Because
EXTD=
EXTT0=
EXTT1=
EXTT2=
EXTT3=
EXTT4=
EXTT5=
EXTT6=
EXTT7=
EXTT8=
EXTT9=
EXTT10=
EXTT11=
EXTT12=
EXTT13=
EXTT14=
EXTT15=
EXTT16=
EXTT17=
EXTT18=
EXTT19=
EXTT20=
EXTT21=
EXTT22=
EXTT23=
EXTT24=
PLAYORDER=
